<svg xmlns="http://www.w3.org/2000/svg" xmlns:xlink="http://www.w3.org/1999/xlink" width="3765px" height="1200px" viewBox="0 0 3765.4471317435673 1200">
    <g id="421a9991-587f-4e0d-be06-1ec6ee78f8a4">
<rect style="stroke: rgb(193,193,193); stroke-opacity: 1.00; stroke-width: 0; stroke-dasharray: none; stroke-linecap: butt; stroke-dashoffset: 0; stroke-linejoin: miter; stroke-miterlimit: 4; fill: rgb(15,15,19); fill-opacity: 1.00; fill-rule: nonzero; opacity: 1;" x="-1882.7235658717836" y="-600" rx="0" ry="0" width="3765.4471317435673" height="1200" transform="matrix(1 0 0 1 1882.723566 600)"></rect>
</g>

        <g id="032eb91a-17b6-42d6-af69-dbad0f865c68" name="New Group">
          <g style="" id="c0a9fcde-2f46-4ba1-bb1a-7b060118b332">
<g style=""><path d="M-632.25000 -7.93000L-665.75000 -77.93000L-667.25000 -77.93000L-667.25000 157.07000L-738.75000 157.07000L-738.75000 -191.93000L-655.75000 -191.93000L-560.25000 -26.93000L-526.75000 43.07000L-525.25000 43.07000L-525.25000 -191.93000L-453.75000 -191.93000L-453.75000 157.07000L-536.75000 157.07000Z" fill="rgb(244,241,234)" fill-opacity="1.00" transform="matrix(2.240132 0 0 2.240132 1870.48324 632.83729) translate(0 0)"></path><path d="M-393.25000 157.07000L-393.25000 96.57000L-348.25000 96.57000L-348.25000 -131.43000L-393.25000 -131.43000L-393.25000 -191.93000L-227.25000 -191.93000L-227.25000 -131.43000L-272.25000 -131.43000L-272.25000 96.57000L-227.25000 96.57000L-227.25000 157.07000Z" fill="rgb(244,241,234)" fill-opacity="1.00" transform="matrix(2.240132 0 0 2.240132 1870.48324 632.83729) translate(0 0)"></path><path d="M178.25000 157.07000L178.25000 -191.93000L415.75000 -191.93000L415.75000 -124.43000L254.25000 -124.43000L254.25000 -52.93000L392.75000 -52.93000L392.75000 14.07000L254.25000 14.07000L254.25000 89.57000L415.75000 89.57000L415.75000 157.07000Z" fill="rgb(244,241,234)" fill-opacity="1.00" transform="matrix(2.240132 0 0 2.240132 1870.48324 632.83729) translate(0 0)"></path><path d="M554.75000 157.07000L478.75000 157.07000L478.75000 -191.93000L644.25000 -191.93000Q668.25000 -191.93000 687.75000 -183.93000Q707.25000 -175.93000 721.00000 -161.18000Q734.75000 -146.43000 742.25000 -125.93000Q749.75000 -105.43000 749.75000 -80.43000Q749.75000 -44.93000 734.00000 -18.43000Q718.25000 8.07000 686.25000 20.07000L754.75000 157.07000L670.25000 157.07000L609.25000 29.07000L554.75000 29.07000ZM634.75000 -34.93000Q651.75000 -34.93000 661.50000 -43.68000Q671.25000 -52.43000 671.25000 -69.43000L671.25000 -91.43000Q671.25000 -108.43000 661.50000 -117.18000Q651.75000 -125.93000 634.75000 -125.93000L554.75000 -125.93000L554.75000 -34.93000Z" fill="rgb(244,241,234)" fill-opacity="1.00" transform="matrix(2.240132 0 0 2.240132 1870.48324 632.83729) translate(0 0)"></path></g></g>

<g style="" id="63e8c808-9021-48f8-a050-ed92a7cd3eb3">
<g style=""><path d="M-36.00000 -7.93000L-69.50000 -77.93000L-71.00000 -77.93000L-71.00000 157.07000L-142.50000 157.07000L-142.50000 -191.93000L-59.50000 -191.93000L36.00000 -26.93000L69.50000 43.07000L71.00000 43.07000L71.00000 -191.93000L142.50000 -191.93000L142.50000 157.07000L59.50000 157.07000Z" fill="rgb(244,241,234)" fill-opacity="1.00" transform="matrix(-2.240132 0 0 2.240132 1813.02792 632.83729) translate(0 0)"></path></g></g>

        </g>
      
  </svg>